<svg width="24" height="23" viewBox="0 0 24 23" fill="none" xmlns="http://www.w3.org/2000/svg">
<path d="M17.3198 8.91077C17.2296 8.17612 17.0044 7.59928 16.6044 7.08833C16.085 6.43041 15.4212 6.03644 14.4385 5.80273C13.7981 5.64696 13.5394 5.66484 13.3077 5.87694C13.092 6.07566 13.0499 6.47403 13.2147 6.73201C13.3307 6.91925 13.4644 6.98633 13.8365 7.05954C14.3319 7.15092 14.6743 7.26951 14.9857 7.44803C15.6468 7.83068 15.9546 8.42946 15.9876 9.39886C16.003 9.85402 16.0422 9.99396 16.2008 10.1554C16.4947 10.4505 17.0178 10.3931 17.2397 10.04C17.3211 9.90686 17.3335 9.84893 17.3421 9.53986C17.3478 9.34851 17.3396 9.0637 17.3198 8.91077V8.91077Z" fill="#BB8C5F"/>
<path d="M19.9088 9.73908C19.7782 7.48833 18.9001 5.6775 17.3285 4.40344C16.443 3.68754 15.3726 3.19527 14.1994 2.95587C13.7696 2.87025 12.9784 2.80085 12.8426 2.84054C12.7145 2.8773 12.5333 3.01635 12.4526 3.1421C12.3672 3.27846 12.3479 3.58292 12.4208 3.75902C12.5384 4.05343 12.7571 4.15744 13.3697 4.21116C14.3141 4.29399 15.2881 4.62661 16.0241 5.11904C16.8644 5.6797 17.5323 6.44656 17.9644 7.34769C18.3377 8.12194 18.5673 9.23773 18.561 10.2369C18.5588 10.5983 18.6145 10.8024 18.7595 10.9516C18.9783 11.181 19.2973 11.2312 19.5788 11.0788C19.8907 10.9143 19.9637 10.6256 19.9088 9.73908V9.73908Z" fill="#BB8C5F"/>
<path d="M22.7738 18.4068C22.7299 18.2782 22.6275 18.0797 22.5542 17.9658C22.093 17.2676 19.615 15.3235 18.3778 14.6877C17.6714 14.3239 17.148 14.2026 16.76 14.3165C16.3427 14.4342 16.1231 14.6289 15.424 15.4999C15.1422 15.849 14.853 16.1761 14.7761 16.2275C14.5858 16.3598 14.2124 16.4664 13.9489 16.4664C13.3376 16.4627 12.2286 16.0658 11.3757 15.544C10.7132 15.1398 9.86405 14.4158 9.21248 13.6991C8.44379 12.8576 7.92043 12.1152 7.50677 11.2773C6.97239 10.2006 6.83696 9.54271 7.06021 9.06126C7.11513 8.94 7.18835 8.81141 7.22124 8.77093C7.25421 8.73424 7.5983 8.45123 7.97892 8.14252C8.72566 7.5472 8.84644 7.41122 8.98552 7.00329C9.16121 6.48509 9.11366 5.9559 8.84279 5.42304C8.63413 5.01877 8.08876 4.13678 7.69346 3.56717C7.17004 2.8175 5.86697 1.2152 5.60705 0.998312C5.13854 0.61615 4.53831 0.54996 3.87573 0.807262C3.17667 1.07922 1.86625 2.13761 1.30621 2.87629C0.801089 3.54513 0.607156 4.01918 0.577843 4.64394C0.552239 5.15841 0.596147 5.37157 0.867014 6.02942C2.98633 11.1891 6.14878 15.3088 10.4936 18.5796C12.763 20.2884 15.1165 21.5894 17.5579 22.4788C18.9818 22.9969 19.6004 23.0226 20.3288 22.5964C20.6362 22.4126 21.3976 21.6298 21.8222 21.0602C22.5249 20.112 22.7848 19.6747 22.858 19.3256C22.9093 19.0867 22.869 18.6714 22.7738 18.4068V18.4068Z" fill="#BB8C5F"/>
<path d="M22.5444 10.256C22.4975 8.98283 22.2837 7.93854 21.8379 6.77424C21.3977 5.62896 20.9522 4.8816 20.1108 3.87078C19.3154 2.92301 18.6975 2.38185 17.7177 1.77947C16.3506 0.940183 14.6868 0.384773 12.8223 0.151191C12.1865 0.0695554 12.0426 0.0753865 11.8476 0.205874C11.4695 0.453065 11.4746 1.06962 11.8538 1.3131C11.9793 1.39056 12.0907 1.41877 12.5993 1.48551C13.3801 1.59089 13.8821 1.6902 14.4779 1.85315C16.8139 2.49333 18.6104 3.80189 19.8114 5.74438C20.8164 7.36347 21.2336 8.98268 21.1744 11.0507C21.1538 11.7498 21.1687 11.8728 21.2753 12.0408C21.4795 12.3539 22.0179 12.4158 22.2941 12.156C22.4659 11.9977 22.4983 11.8788 22.5322 11.2804C22.5484 10.9683 22.5519 10.5075 22.5444 10.256V10.256Z" fill="#BB8C5F"/>
</svg>
