<svg width="28" height="28" viewBox="0 0 28 28" fill="none" xmlns="http://www.w3.org/2000/svg">
<path fill-rule="evenodd" clip-rule="evenodd" d="M13.865 6.75C9.93549 6.75 6.75 9.93549 6.75 13.865C6.75 17.7945 9.93549 20.98 13.865 20.98C17.7945 20.98 20.98 17.7945 20.98 13.865C20.98 9.93549 17.7945 6.75 13.865 6.75ZM5.25 13.865C5.25 9.10706 9.10706 5.25 13.865 5.25C18.6229 5.25 22.48 9.10706 22.48 13.865C22.48 18.6229 18.6229 22.48 13.865 22.48C9.10706 22.48 5.25 18.6229 5.25 13.865Z" fill="#636B78"/>
<path fill-rule="evenodd" clip-rule="evenodd" d="M19.3337 18.683L23.4793 22.8178L22.42 23.8799L18.2744 19.7451L19.3337 18.683Z" fill="#636B78"/>
</svg>
