<svg width="19" height="19" viewBox="0 0 19 19" fill="none" xmlns="http://www.w3.org/2000/svg">
<path fill-rule="evenodd" clip-rule="evenodd" d="M0.300049 13.3H18.7001V18.5H17.3V14.7H1.70005V18.5H0.300049V13.3Z" fill="#FAF6F2"/>
<path fill-rule="evenodd" clip-rule="evenodd" d="M9.5 9.6C11.7644 9.6 13.6 7.76437 13.6 5.5C13.6 3.23563 11.7644 1.4 9.5 1.4C7.23563 1.4 5.4 3.23563 5.4 5.5C5.4 7.76437 7.23563 9.6 9.5 9.6ZM9.5 11C12.5376 11 15 8.53757 15 5.5C15 2.46243 12.5376 0 9.5 0C6.46243 0 4 2.46243 4 5.5C4 8.53757 6.46243 11 9.5 11Z" fill="#FAF6F2"/>
</svg>
