<svg width="25" height="25" viewBox="0 0 25 25" fill="none" xmlns="http://www.w3.org/2000/svg">
<path fill-rule="evenodd" clip-rule="evenodd" d="M24.4567 12.0441C24.454 18.5998 19.1211 23.934 12.5641 23.9366H12.5592C10.5688 23.936 8.61304 23.4366 6.87599 22.4891L0.571533 24.1429L2.25871 17.9803C1.21798 16.1766 0.670349 14.1308 0.671241 12.0348C0.67385 5.47763 6.00888 0.142883 12.564 0.142883C15.7454 0.144256 18.7314 1.38277 20.9767 3.63073C23.222 5.87857 24.4579 8.8665 24.4567 12.0441ZM3.42682 21.3175L7.16797 20.3362L7.52892 20.5504C9.04657 21.451 10.7862 21.9275 12.56 21.9282H12.564C18.0121 21.9282 22.4464 17.4939 22.4485 12.0435C22.4496 9.40226 21.4224 6.91882 19.5561 5.0504C17.6899 3.18199 15.2081 2.15253 12.5679 2.15161C7.11552 2.15161 2.68122 6.5855 2.67906 12.0355C2.67829 13.9032 3.20089 15.7222 4.19036 17.2959L4.42538 17.6699L3.42682 21.3175Z" fill="#BB8C5F"/>
<path d="M18.32 15.6152C18.2458 15.4912 18.0477 15.4169 17.7505 15.2681C17.4534 15.1193 15.9924 14.4006 15.72 14.3013C15.4477 14.2022 15.2495 14.1526 15.0514 14.45C14.8534 14.7475 14.2839 15.4169 14.1105 15.6152C13.9372 15.8134 13.7638 15.8383 13.4668 15.6895C13.1696 15.5408 12.2121 15.2271 11.0771 14.2146C10.1937 13.4267 9.59732 12.4536 9.42398 12.1561C9.25064 11.8586 9.4055 11.6979 9.55426 11.5497C9.68795 11.4165 9.85144 11.2025 10 11.0291C10.1486 10.8556 10.1981 10.7316 10.2972 10.5334C10.3962 10.335 10.3467 10.1615 10.2724 10.0127C10.1981 9.864 9.60382 8.40133 9.3562 7.80633C9.11497 7.22689 8.87 7.30539 8.68761 7.29623C8.51448 7.28754 8.31616 7.28571 8.11808 7.28571C7.91999 7.28571 7.59804 7.36008 7.32567 7.65758C7.0533 7.95508 6.28564 8.674 6.28564 10.1366C6.28564 11.5992 7.35042 13.0122 7.49901 13.2105C7.64758 13.4089 9.59437 16.4103 12.5753 17.6975C13.2843 18.0037 13.8377 18.1865 14.2693 18.3234C14.9812 18.5497 15.629 18.5177 16.141 18.4412C16.7119 18.3559 17.8991 17.7224 18.1468 17.0283C18.3943 16.334 18.3943 15.7391 18.32 15.6152Z" fill="#BB8C5F"/>
</svg>
